<?xml version="1.0" encoding="utf-8"?>
<!-- Generator: Adobe Illustrator 21.0.0, SVG Export Plug-In . SVG Version: 6.00 Build 0)  -->
<svg version="1.1" id="Layer_1" xmlns="http://www.w3.org/2000/svg" xmlns:xlink="http://www.w3.org/1999/xlink" x="0px" y="0px"
	 width="99.2px" height="12px" viewBox="0 0 99.2 12" style="enable-background:new 0 0 99.2 12;" xml:space="preserve">
<style type="text/css">
	.st0{fill:#54575C;}
</style>
<g>
	<g>
		<path class="st0" d="M8.2,0.9C7.2,0.3,6,0,4.7,0C4.6,0,0.2,0,0,0v3.8h2.8V2.9c0,0,1.8,0,2.6,0.1c1.5,0.2,2.7,1.6,2.7,3
			c0,1.5-1.1,2.8-2.7,3C4.7,9.1,0.1,9.1,0.1,9.1V12c0.2,0,4.5,0,4.6,0c1.3,0,2.5-0.3,3.5-0.9c2-1.2,3.1-3,3.1-5.1
			C11.3,2.9,8.7,1.2,8.2,0.9"/>
	</g>
	<polygon class="st0" points="56.3,0.2 62.6,7.2 62.6,0.2 65.7,0.2 65.7,11.8 62.8,11.8 56.6,4.8 56.6,11.8 53.5,11.8 53.5,0.2 	"/>
	<polygon class="st0" points="77.2,5.6 81,0.2 77.5,0.2 73.7,5.6 77.6,11.8 81.3,11.8 	"/>
	<rect x="69.2" y="0.2" class="st0" width="3.3" height="11.5"/>
	<polygon class="st0" points="42,0.2 46.1,0.2 51.1,11.8 47.8,11.8 44.1,3 40.4,11.8 37,11.8 	"/>
	<polygon class="st0" points="26.2,0.2 26.2,3 30.2,3 30.2,3 30.2,11.8 33.3,11.8 33.3,3 33.3,3 37.3,3 37.3,0.2 	"/>
	<polygon class="st0" points="17.3,0.2 21.4,0.2 26.4,11.8 23,11.8 19.3,3 15.6,11.8 12.2,11.8 	"/>
	<g>
		<path class="st0" d="M96.8,1.8c-0.1-0.1-0.4-0.1-0.7-0.1h-0.5v1.2h0.5c0.2,0,0.4,0,0.5-0.1C96.9,2.7,97,2.6,97,2.3
			C97,2.1,96.9,1.9,96.8,1.8 M96.2,1.3c0.4,0,0.7,0,0.9,0.1c0.3,0.1,0.5,0.4,0.5,0.8c0,0.3-0.1,0.5-0.3,0.6C97.1,3,97,3,96.8,3.1
			c0.3,0,0.4,0.1,0.6,0.3c0.1,0.2,0.2,0.3,0.2,0.5v0.2c0,0.1,0,0.2,0,0.2c0,0.1,0,0.1,0,0.2l0,0H97c0,0,0,0,0,0c0,0,0,0,0,0l0-0.1
			V4.1c0-0.4-0.1-0.6-0.3-0.7c-0.1-0.1-0.3-0.1-0.6-0.1h-0.5v1.3H95V1.3H96.2z M94.4,1.2c-0.5,0.5-0.7,1.1-0.7,1.8
			c0,0.7,0.2,1.3,0.7,1.8c0.5,0.5,1.1,0.8,1.8,0.8c0.7,0,1.3-0.3,1.8-0.8c0.5-0.5,0.7-1.1,0.7-1.8c0-0.7-0.2-1.3-0.7-1.8
			c-0.5-0.5-1.1-0.8-1.8-0.8C95.5,0.4,94.9,0.7,94.4,1.2 M98.3,5.1c-0.6,0.6-1.3,0.9-2.1,0.9c-0.8,0-1.5-0.3-2.1-0.9
			c-0.6-0.6-0.9-1.3-0.9-2.1c0-0.8,0.3-1.5,0.9-2.1C94.7,0.3,95.4,0,96.2,0c0.8,0,1.5,0.3,2.1,0.9c0.6,0.6,0.9,1.3,0.9,2.1
			C99.2,3.8,98.9,4.5,98.3,5.1"/>
	</g>
</g>
</svg>
